<?xml version="1.0" encoding="UTF-8"?>
<svg id="Layer_1" xmlns="http://www.w3.org/2000/svg" version="1.1" viewBox="0 0 24 24">
  <!-- Generator: Adobe Illustrator 29.7.1, SVG Export Plug-In . SVG Version: 2.1.1 Build 8)  -->
  <defs>
    <style>
      .st0 {
        fill: #2945b8;
      }
    </style>
  </defs>
  <path class="st0" d="M14,11h-4c-1.1,0-2-.9-2-2s.9-2,2-2h5c.6,0,1,.4,1,1s.4,1,1,1,1-.4,1-1c0-1.7-1.3-3-3-3h-2v-2c0-.6-.4-1-1-1s-1,.4-1,1v2h-1c-2.2,0-4,1.8-4,4s1.8,4,4,4h4c1.1,0,2,.9,2,2s-.9,2-2,2h-5c-.6,0-1-.4-1-1s-.4-1-1-1-1,.4-1,1c0,1.7,1.3,3,3,3h2v2c0,.6.4,1,1,1s1-.4,1-1v-2h1c2.2,0,4-1.8,4-4s-1.8-4-4-4Z"/>
</svg>