<?xml version="1.0" encoding="UTF-8"?>
<svg id="Layer_1" xmlns="http://www.w3.org/2000/svg" version="1.1" viewBox="0 0 24 24">
  <!-- Generator: Adobe Illustrator 29.7.1, SVG Export Plug-In . SVG Version: 2.1.1 Build 8)  -->
  <defs>
    <style>
      .st0 {
        fill: #2945b8;
      }
    </style>
  </defs>
  <path class="st0" d="M20.2,4.6c-2.2-2.2-5.7-2.5-8.2-.6-2.8-2.1-6.7-1.5-8.8,1.3-1.9,2.5-1.6,6,.6,8.2l7.4,7.5c.4.4,1,.4,1.4,0,0,0,0,0,0,0l7.4-7.4c2.4-2.4,2.5-6.4,0-8.9,0,0,0,0,0,0ZM18.8,12.1l-6.8,6.7-6.8-6.7c-1.7-1.7-1.7-4.4,0-6.1.8-.8,1.9-1.2,3-1.2,1.1,0,2.2.5,3,1.2.4.4,1,.4,1.4,0,0,0,0,0,0,0,1.8-1.5,4.5-1.4,6,.4,1.4,1.6,1.4,4,0,5.6h0Z"/>
</svg>