<svg width="200" height="36" viewBox="0 0 200 36" fill="none" xmlns="http://www.w3.org/2000/svg">
<g clip-path="url(#clip0_10987_878)">
<path d="M12.8519 28.8414C12.5672 28.7697 12.2824 28.6785 12.0559 28.5612C11.9395 28.4895 11.8877 28.4569 11.8359 28.3918C11.7841 28.3331 11.7583 28.2549 11.7518 28.1767C11.7518 28.0855 11.7971 28.0073 11.8553 27.9421C11.8877 27.9096 11.9071 27.89 11.9653 27.8509C12.0171 27.8053 12.0883 27.7727 12.153 27.7336C12.4248 27.5837 12.7419 27.4599 13.059 27.3491C13.7061 27.1341 14.3791 26.9647 15.0586 26.8148C15.9193 26.6258 16.7994 26.4564 17.673 26.3L17.6147 25.4398C16.7023 25.6223 15.7898 25.8048 14.8774 26.0133C14.185 26.1762 13.4926 26.3521 12.8001 26.5998C12.4572 26.7236 12.1077 26.8604 11.7647 27.0559C11.6806 27.108 11.5965 27.1602 11.5059 27.2253C11.4218 27.284 11.3053 27.3882 11.2211 27.4795C11.0464 27.675 10.9299 27.9226 10.9364 28.1832C10.9623 28.294 10.9623 28.4113 11.0141 28.5156C11.0723 28.6133 11.0982 28.7306 11.1823 28.8153C11.3182 28.9978 11.5382 29.1411 11.6935 29.2259C12.0236 29.3953 12.3471 29.4865 12.6642 29.5647C13.3049 29.7146 13.9326 29.7928 14.5603 29.871C15.6539 29.9948 16.7346 30.086 17.8218 30.1838C17.8348 30.0209 17.8477 29.7537 17.8542 29.4995C16.7799 29.3888 15.7057 29.2845 14.6509 29.1542C14.0361 29.076 13.4214 28.9913 12.8454 28.8414H12.8519Z" fill="white"/>
<path d="M21.1415 13.4953C25.4255 11.6251 29.6836 9.72888 33.9416 7.83261L33.3269 6.43159C29.0817 8.38651 24.8366 10.3414 20.5915 12.2572L20.1838 12.4397L20.0867 13.958L21.148 13.4953H21.1415Z" fill="white"/>
<path d="M3.33269 5.22606C5.85647 5.55188 8.61969 4.405 11.3829 5.38897C14.1461 6.37294 14.6379 10.0547 14.6379 10.0547L7.15719 7.92384L15.2268 11.5535C15.0844 11.9966 14.8515 12.4266 14.5926 12.8046C14.4438 13.0653 14.1849 13.378 13.939 13.6452C13.8937 13.6973 13.8484 13.743 13.8031 13.7886C13.6025 14.0036 13.4408 14.1535 13.389 14.2056C12.6383 14.8964 11.6547 15.3655 10.6711 15.6001C7.28661 16.3951 3.63683 14.0362 2.43966 10.8758C2.43966 10.8627 0 4.405 0 4.405C0 4.405 0.815376 4.89373 3.33269 5.22606Z" fill="white"/>
<path d="M18.4883 7.3113C20.3039 7.3113 21.7757 5.82923 21.7757 4.00099C21.7757 2.17275 20.3039 0.690674 18.4883 0.690674C16.6727 0.690674 15.2009 2.17275 15.2009 4.00099C15.2009 5.82923 16.6727 7.3113 18.4883 7.3113Z" fill="white"/>
<path d="M22.5458 10.0612C22.5458 10.0612 23.0311 6.37294 25.8008 5.39549C28.564 4.41151 31.3337 5.5584 33.851 5.23258C36.3684 4.90676 37.1837 4.41151 37.1837 4.41151C37.1837 4.41151 34.7505 10.8692 34.7441 10.8823C33.5534 14.0427 29.8971 16.3951 26.5191 15.6066C25.5355 15.3786 24.5519 14.9029 23.8012 14.2121C23.6265 14.0557 22.1381 12.5961 22.5523 12.355L30.033 7.93035L22.5523 10.0612H22.5458Z" fill="white"/>
<path d="M20.4556 32.7251C21.0445 32.3733 20.8633 32.3081 21.6139 32.2755C21.7175 32.2755 23.1347 32.2755 23.2965 32.1517C22.4228 32.0214 21.0962 31.6956 20.4038 32.2886C20.1514 32.5036 19.8667 32.3407 19.7502 32.1908C19.4914 31.865 19.3361 31.8845 19.2325 31.5327C19.1743 31.3307 19.0384 30.3793 19.0707 29.7211L19.459 23.7521L20.4168 8.90131H16.5728L17.5306 23.7521L17.8736 29.0043C17.8995 29.3757 17.8347 30.2359 17.8347 30.2554C17.8347 30.3076 17.8024 30.8354 17.8024 30.8875C17.8024 30.9788 17.8024 31.07 17.77 31.1547C17.7247 31.259 17.6341 31.3502 17.5694 31.4479C17.5047 31.5457 17.4335 31.6369 17.3559 31.7216C16.9223 32.1908 16.191 32.256 15.6086 32.5231C15.3498 32.6404 12.2824 33.1357 12.0495 33.2595C11.9006 33.3377 14.8515 32.9728 14.7544 33.0966C14.5474 33.3507 14.1785 33.8134 13.8614 33.9763C13.6931 34.0675 13.4925 34.1131 13.3113 34.1913C13.1884 34.2435 12.9943 34.3217 12.936 34.4259L14.172 34.3412C14.7156 34.7517 14.4762 34.8299 14.6056 35.7487C14.8644 35.3838 14.8968 34.9016 14.8774 34.5497C14.8515 34.1979 14.8386 34.4129 14.7738 34.061C14.7156 33.7222 14.9292 33.4354 15.311 33.2921C15.8804 33.077 16.4499 32.8685 17.0323 32.673C17.2329 32.6013 17.8671 32.256 18.1454 32.1843C18.333 32.7643 18.1842 33.5658 18.2101 34.074C18.236 34.5628 18.0612 35.1232 17.9189 35.7487C18.3848 34.9994 18.676 33.8395 18.6825 33.8134C18.7213 33.6114 18.9737 33.064 19.0254 32.8099C19.7049 32.7968 19.9832 33.2269 20.6109 33.3833C21.0315 33.4876 21.4069 33.5462 22.0734 33.5332C21.5039 33.1878 20.7339 33.1096 20.4556 32.7317V32.7251Z" fill="white"/>
<path d="M26.2538 22.9962C26.215 22.7225 26.0403 22.4879 25.8267 22.312C25.7232 22.2273 25.5808 22.1295 25.4837 22.0774C25.3931 22.0318 25.3025 21.9796 25.2119 21.9405C24.4872 21.6278 23.7883 21.4714 23.0764 21.3215C22.3711 21.1781 21.6657 21.0608 20.9603 20.9566C20.5203 20.8914 20.0803 20.8393 19.6402 20.7806C18.8637 20.6764 18.0806 20.5851 17.3041 20.4939C17.1164 20.4744 16.9288 20.4483 16.7411 20.4288C15.3368 20.2658 13.9391 20.1094 12.5542 19.914C11.8618 19.8162 11.1758 19.7054 10.5093 19.5621C10.1793 19.4904 9.84924 19.4057 9.5645 19.3014C9.49979 19.2754 9.41566 19.2428 9.37036 19.2232C9.34448 19.2102 9.33154 19.2037 9.31212 19.1906C9.27977 19.1711 9.24741 19.132 9.26035 19.0929C9.26035 19.0603 9.26035 19.0212 9.28624 19.0082C9.29271 18.9365 9.37036 18.8844 9.40919 18.8127C9.54509 18.6824 9.71981 18.552 9.96572 18.4347C10.1922 18.3174 10.4705 18.1871 10.7423 18.0568L11.5253 17.6984C12.5477 17.2162 13.6479 16.7666 14.7156 16.3039L16.9611 15.3199L16.8705 13.9319L14.2044 15.144C13.1366 15.6197 12.0753 16.0628 11.0011 16.5906L10.1922 16.9751C9.93983 17.0989 9.69393 17.2162 9.40272 17.3726C8.87208 17.6723 8.07612 18.1089 8.05023 19.3079C8.06317 19.4513 8.08906 19.6012 8.17319 19.7315C8.25731 19.8553 8.35438 19.9726 8.47733 20.0573C8.59382 20.1551 8.74265 20.2202 8.87208 20.2919C8.98856 20.344 9.07269 20.3766 9.16976 20.4092C9.54509 20.5395 9.90748 20.6242 10.2699 20.6959C10.9882 20.8393 11.6935 20.9435 12.3989 21.0348C13.8096 21.2172 15.2204 21.3541 16.6181 21.4974C16.8705 21.5235 17.1164 21.5496 17.3623 21.5756C18.0936 21.6538 18.8313 21.732 19.5561 21.8233C19.9702 21.8754 20.3909 21.921 20.805 21.9731C21.4975 22.0644 22.1899 22.1686 22.8694 22.2989C23.5424 22.4293 24.2283 22.5857 24.8043 22.8268C24.8754 22.8594 24.9402 22.8919 25.0049 22.9245C25.0631 22.9571 25.0696 22.9571 25.1019 22.9832C25.1537 23.0223 25.2055 23.0679 25.2184 23.133C25.2314 23.1982 25.2055 23.2634 25.1666 23.3155C25.1149 23.3742 25.1084 23.3872 24.9596 23.4849C24.4548 23.8042 23.7818 24.0258 23.1282 24.2148C21.8987 24.5666 20.6303 24.8208 19.3555 25.0749L19.2972 25.9807C20.6562 25.7266 22.0152 25.4724 23.3806 25.1075C24.0795 24.9055 24.7719 24.71 25.4773 24.2864C25.6261 24.1952 25.9044 23.9867 26.0532 23.7586C26.2085 23.5305 26.2862 23.2503 26.2538 22.9767V22.9962Z" fill="white"/>
<path d="M56.2933 14.5575C55.9503 14.1079 55.6138 13.7234 55.2708 13.3911C54.9278 13.0653 54.5654 12.7916 54.1707 12.57C53.776 12.355 53.3553 12.1921 52.8959 12.0878C52.4364 11.9836 51.9187 11.9314 51.3428 11.9314C50.8704 11.9314 50.3721 11.9836 49.8544 12.0813C49.3302 12.179 48.819 12.3354 48.3142 12.544C47.8095 12.7525 47.3306 13.0327 46.8841 13.3715C46.4311 13.7169 46.0364 14.134 45.6869 14.6292C45.3375 15.1244 45.0657 15.6914 44.8651 16.3365C44.6645 16.9816 44.5609 17.718 44.5609 18.552C44.5609 19.6207 44.7421 20.5591 45.098 21.3802C45.4604 22.1947 45.9458 22.8854 46.5605 23.4458C47.1753 24.0062 47.9001 24.4298 48.7413 24.7231C49.5761 25.0098 50.4692 25.1596 51.4075 25.1596C52.1646 25.1596 52.9412 25.0489 53.7436 24.8338C54.5396 24.6188 55.2773 24.2995 55.9438 23.8759V20.1225H50.275V19.1125H57.0051V24.4103C56.5198 24.7296 56.0474 24.9967 55.5944 25.2183C55.1349 25.4399 54.6755 25.6223 54.2095 25.7592C53.7436 25.896 53.2712 25.9937 52.7859 26.0589C52.3005 26.1176 51.7958 26.1501 51.2716 26.1501C50.2491 26.1501 49.272 25.9807 48.3272 25.6484C47.3824 25.316 46.5605 24.8208 45.8422 24.1692C45.1304 23.5175 44.5609 22.7225 44.1338 21.7907C43.7067 20.8588 43.4932 19.7836 43.4932 18.5716C43.4932 17.6528 43.6096 16.8252 43.8361 16.0889C44.0626 15.359 44.3733 14.7074 44.768 14.1405C45.1627 13.5735 45.6157 13.0913 46.1334 12.6873C46.6511 12.2833 47.1947 11.9575 47.7707 11.6968C48.3466 11.4427 48.9355 11.2537 49.5373 11.1299C50.1391 11.0061 50.7151 10.954 51.2651 10.954C51.9834 10.954 52.6241 11.0191 53.1871 11.1495C53.7501 11.2798 54.2613 11.4753 54.7208 11.7424C55.1802 12.0031 55.6008 12.3289 55.9956 12.7134C56.3903 13.0978 56.7721 13.5279 57.1539 14.0167L56.2933 14.5705V14.5575Z" fill="white"/>
<path d="M72.9955 22.8594C72.7755 23.6609 72.4261 24.306 71.9537 24.7947C71.4812 25.2835 70.8859 25.6288 70.1611 25.8308C69.4363 26.0328 68.5692 26.1371 67.5597 26.1371C66.5502 26.1371 65.7089 26.0328 64.9906 25.8308C64.2723 25.6288 63.6769 25.2835 63.2175 24.7947C62.758 24.306 62.4086 23.6609 62.1886 22.8594C61.9685 22.0579 61.8521 21.0608 61.8521 19.8749V11.2211H62.9133V19.8358C62.9133 20.8132 62.9845 21.6343 63.1269 22.3185C63.2693 22.9962 63.5216 23.5436 63.8711 23.9671C64.2205 24.3907 64.6994 24.6905 65.2947 24.8729C65.8901 25.0554 66.6472 25.1466 67.5597 25.1466C68.4721 25.1466 69.2746 25.0554 69.8829 24.8729C70.4911 24.6905 70.97 24.3842 71.3259 23.9671C71.6819 23.5436 71.9213 22.9962 72.0637 22.3185C72.1996 21.6408 72.2707 20.8132 72.2707 19.8358V11.2211H73.332V19.8749C73.332 21.0608 73.222 22.0579 73.002 22.8594H72.9955Z" fill="white"/>
<path d="M89.989 25.8634C87.4652 22.729 85.3362 20.0899 83.6148 17.9395C81.887 15.7956 80.5345 14.1014 79.5509 12.8633C79.5638 14.1144 79.5703 15.8087 79.5703 17.9395V25.8634H78.509V11.2211H79.5121C82.0359 14.3685 84.1649 17.0142 85.8992 19.1646C87.6335 21.315 88.9795 22.9962 89.9502 24.2213C89.9372 22.9832 89.9308 21.2954 89.9308 19.1646V11.2211H90.992V25.8634H89.989Z" fill="white"/>
<path d="M108.71 21.5626C108.367 22.4619 107.863 23.2308 107.183 23.8629C106.504 24.495 105.643 24.9837 104.601 25.3356C103.559 25.681 102.349 25.8569 100.964 25.8569H96.2143V11.2146H100.964C102.349 11.2146 103.566 11.3906 104.601 11.7359C105.643 12.0878 106.504 12.5765 107.183 13.2151C107.863 13.8537 108.374 14.6227 108.71 15.5285C109.053 16.4277 109.221 17.4377 109.221 18.539C109.221 19.6403 109.053 20.6503 108.71 21.5496V21.5626ZM107.746 15.9781C107.474 15.2026 107.047 14.538 106.471 13.9841C105.895 13.4302 105.151 13.0001 104.245 12.6873C103.339 12.381 102.252 12.2247 100.997 12.2247H97.2691V24.8469H100.997C102.252 24.8469 103.333 24.6905 104.245 24.3842C105.158 24.0779 105.895 23.6413 106.471 23.0874C107.047 22.5335 107.474 21.8754 107.746 21.0999C108.018 20.331 108.16 19.4774 108.16 18.539C108.16 17.6007 108.024 16.747 107.746 15.9716V15.9781Z" fill="white"/>
<path d="M125.833 25.8634L119.614 19.7771H114.787V25.8634H113.725V11.2211H118.708C121.206 11.2211 123.031 11.586 124.17 12.3159C125.315 13.0457 125.885 14.0688 125.885 15.3916C125.885 15.9846 125.755 16.5255 125.503 17.0142C125.251 17.5029 124.901 17.933 124.455 18.3109C124.008 18.6889 123.484 18.9952 122.882 19.2297C122.28 19.4643 121.633 19.6272 120.941 19.7054L127.296 25.8699H125.827L125.833 25.8634ZM124.604 14.2578C124.455 13.8798 124.151 13.541 123.704 13.2412C123.251 12.9349 122.617 12.6938 121.802 12.5114C120.986 12.3289 119.899 12.2377 118.553 12.2377H114.787V18.7801H119.867C120.689 18.7801 121.413 18.6824 122.035 18.4869C122.656 18.2914 123.173 18.0307 123.581 17.7179C123.995 17.3986 124.306 17.0402 124.513 16.6427C124.72 16.2453 124.83 15.8282 124.83 15.4112C124.83 15.0267 124.752 14.6487 124.604 14.2773V14.2578Z" fill="white"/>
<path d="M135.676 19.6207V25.8634H134.615V19.6207L128.338 11.2211H129.612L132.537 15.1505C132.971 15.7435 133.404 16.3234 133.845 16.8969C134.285 17.4703 134.718 18.0503 135.152 18.6433C135.598 18.0503 136.038 17.4638 136.465 16.8839C136.892 16.3039 137.326 15.7174 137.76 15.1244L140.685 11.2146H141.959L135.682 19.6142L135.676 19.6207Z" fill="white"/>
<path d="M168.757 25.9221V18.9886C168.757 18.0242 168.757 17.151 168.763 16.3691C168.763 15.5871 168.77 14.8703 168.77 14.2252C167.922 15.5154 166.861 17.1184 165.592 19.0343C164.324 20.9501 162.803 23.2438 161.043 25.9221H159.749C157.969 23.2373 156.455 20.9305 155.2 19.0147C153.944 17.0989 152.889 15.5024 152.042 14.2252C152.055 15.5154 152.061 17.1184 152.061 19.0277V25.9221H150.023V10.2893H151.867C153.905 13.3976 155.64 16.0172 157.057 18.1545C158.474 20.2919 159.6 21.9797 160.422 23.2308C161.244 21.9797 162.363 20.2854 163.78 18.1415C165.191 16.0041 166.926 13.3846 168.977 10.2893H170.802V25.9155H168.763L168.757 25.9221Z" fill="white"/>
<path d="M188.844 21.3345C188.475 22.299 187.931 23.1135 187.193 23.7977C186.456 24.4819 185.55 24.9967 184.456 25.3682C183.362 25.7396 182.094 25.9221 180.638 25.9221H175.396V10.2893H180.638C182.088 10.2893 183.362 10.4717 184.456 10.8432C185.55 11.2146 186.462 11.7359 187.193 12.4136C187.925 13.0913 188.475 13.9124 188.844 14.8833C189.212 15.8543 189.394 16.9295 189.394 18.1155C189.394 19.3014 189.212 20.3766 188.844 21.3345ZM186.993 15.7435C186.753 15.0332 186.359 14.4207 185.828 13.9059C185.297 13.3911 184.605 12.9936 183.757 12.7134C182.916 12.4332 181.887 12.2898 180.69 12.2898H177.454V23.9281H180.69C181.893 23.9281 182.916 23.7847 183.757 23.5045C184.598 23.2243 185.291 22.8203 185.828 22.312C186.365 21.8037 186.753 21.1847 186.993 20.4744C187.232 19.7641 187.355 18.9821 187.355 18.122C187.355 17.2618 187.232 16.4603 186.993 15.75V15.7435Z" fill="white"/>
<path d="M196.279 17.7961C194.228 17.7961 192.558 16.1149 192.558 14.0492C192.558 11.9835 194.228 10.3023 196.279 10.3023C198.33 10.3023 200 11.964 200 14.0492C200 16.1345 198.35 17.7961 196.279 17.7961ZM196.279 10.8171C194.506 10.8171 193.069 12.2312 193.069 14.0492C193.069 15.8673 194.506 17.2814 196.279 17.2814C198.052 17.2814 199.495 15.8152 199.495 14.0492C199.495 12.2833 198.059 10.8171 196.279 10.8171ZM197.295 16.2062L196.188 14.5119H195.418V16.2062H194.855V11.9119H196.596C197.314 11.9119 197.949 12.4267 197.949 13.2217C197.949 14.173 197.107 14.4923 196.861 14.4923L198 16.2062H197.302H197.295ZM196.596 12.4071H195.418V13.9971H196.596C196.965 13.9971 197.366 13.6583 197.366 13.2217C197.366 12.746 196.959 12.4071 196.596 12.4071Z" fill="white"/>
</g>
<defs>
<clipPath id="clip0_10987_878">
<rect width="200" height="35.0515" fill="white" transform="translate(0 0.690674)"/>
</clipPath>
</defs>
</svg>
