<svg width="256" height="95" viewBox="0 0 256 95" fill="none" xmlns="http://www.w3.org/2000/svg">
<g clip-path="url(#clip0_10987_731)">
<path d="M16.8861 60.8921C16.5231 60.8008 16.1601 60.6844 15.8713 60.5349C15.7228 60.4435 15.6568 60.4019 15.5908 60.3189C15.5248 60.2441 15.4918 60.1444 15.4835 60.0447C15.4835 59.9284 15.5413 59.8287 15.6155 59.7456C15.6568 59.704 15.6815 59.6791 15.7558 59.6293C15.8218 59.5711 15.9125 59.5296 15.9951 59.4797C16.3416 59.2886 16.7459 59.1308 17.1502 58.9895C17.9753 58.7154 18.8333 58.4993 19.6997 58.3082C20.797 58.0673 21.9191 57.8513 23.033 57.6519L22.9588 56.5552C21.7954 56.7878 20.632 57.0204 19.4687 57.2863C18.5858 57.494 17.703 57.7183 16.8201 58.0341C16.3828 58.1919 15.9373 58.3664 15.5 58.6157C15.3927 58.6821 15.2855 58.7486 15.17 58.8317C15.0627 58.9064 14.9142 59.0394 14.8069 59.1557C14.5842 59.4049 14.4356 59.7207 14.4439 60.053C14.4769 60.1942 14.4769 60.3438 14.5429 60.4767C14.6172 60.6014 14.6502 60.7509 14.7574 60.8589C14.9307 61.0915 15.2112 61.2743 15.4092 61.3823C15.83 61.5984 16.2426 61.7147 16.6469 61.8144C17.4637 62.0055 18.264 62.1052 19.0644 62.2049C20.4588 62.3627 21.8366 62.479 23.2228 62.6037C23.2393 62.396 23.2558 62.0553 23.264 61.7313C21.8944 61.59 20.5248 61.4571 19.1799 61.2909C18.396 61.1912 17.6122 61.0832 16.8779 60.8921H16.8861Z" fill="#B8D436"/>
<path d="M27.4554 41.326C32.9175 38.9415 38.3465 36.5237 43.7756 34.106L42.9918 32.3197C37.5792 34.8122 32.1667 37.3047 26.7541 39.7474L26.2343 39.98L26.1106 41.9159L27.4637 41.326H27.4554Z" fill="#B8D436"/>
<path d="M4.74918 30.7826C7.967 31.198 11.4901 29.7357 15.0132 30.9903C18.5363 32.2448 19.1634 36.9391 19.1634 36.9391L9.62541 34.2222L19.9142 38.85C19.7327 39.415 19.4356 39.9633 19.1056 40.4452C18.9158 40.7775 18.5858 41.1763 18.2723 41.517C18.2145 41.5835 18.1568 41.6416 18.099 41.6998C17.8432 41.9739 17.637 42.165 17.571 42.2315C16.6139 43.1122 15.3597 43.7104 14.1056 44.0095C9.79043 45.0231 5.13696 42.0155 3.61056 37.9859C3.61056 37.9693 0.5 29.7357 0.5 29.7357C0.5 29.7357 1.5396 30.3588 4.74918 30.7826Z" fill="#B8D436"/>
<path d="M24.0726 33.4413C26.3875 33.4413 28.264 31.5517 28.264 29.2207C28.264 26.8897 26.3875 25 24.0726 25C21.7578 25 19.8812 26.8897 19.8812 29.2207C19.8812 31.5517 21.7578 33.4413 24.0726 33.4413Z" fill="#192C7C"/>
<path d="M29.2459 36.9474C29.2459 36.9474 29.8647 32.2448 33.396 30.9986C36.9191 29.744 40.4505 31.2063 43.6601 30.7909C46.8696 30.3755 47.9092 29.744 47.9092 29.744C47.9092 29.744 44.8069 37.9776 44.7987 37.9942C43.2805 42.0238 38.6188 45.0231 34.3119 44.0178C33.0577 43.727 31.8036 43.1205 30.8465 42.2398C30.6238 42.0404 28.7261 40.1793 29.2541 39.8719L38.7921 34.2305L29.2541 36.9474H29.2459Z" fill="#B8D436"/>
<path d="M26.5808 65.8439C27.3317 65.3953 27.1006 65.3122 28.0577 65.2706C28.1898 65.2706 29.9967 65.2706 30.203 65.1128C29.0891 64.9466 27.3977 64.5312 26.5148 65.2872C26.1931 65.5614 25.83 65.3537 25.6815 65.1626C25.3515 64.7472 25.1535 64.7721 25.0214 64.3235C24.9472 64.0659 24.7739 62.8529 24.8152 62.0138L25.3102 54.4033L26.5313 35.4685H21.6304L22.8515 54.4033L23.2888 61.0998C23.3218 61.5734 23.2393 62.6701 23.2393 62.695C23.2393 62.7615 23.198 63.4345 23.198 63.5009C23.198 63.6173 23.198 63.7336 23.1568 63.8416C23.099 63.9745 22.9835 64.0908 22.901 64.2155C22.8185 64.3401 22.7277 64.4564 22.6287 64.5644C22.0759 65.1626 21.1436 65.2457 20.401 65.5863C20.0709 65.7359 16.1601 66.3673 15.863 66.5252C15.6733 66.6249 19.4356 66.1596 19.3119 66.3175C19.0478 66.6415 18.5775 67.2314 18.1733 67.4391C17.9587 67.5554 17.703 67.6136 17.4719 67.7133C17.3152 67.7798 17.0676 67.8795 16.9934 68.0124L18.5693 67.9044C19.2624 68.4278 18.9571 68.5275 19.1221 69.699C19.4521 69.2337 19.4934 68.6189 19.4686 68.1703C19.4356 67.7216 19.4191 67.9958 19.3366 67.5471C19.2624 67.1151 19.5346 66.7495 20.0214 66.5667C20.7475 66.2926 21.4736 66.0267 22.2162 65.7774C22.4719 65.6861 23.2805 65.2457 23.6353 65.1543C23.8746 65.8938 23.6848 66.9157 23.7178 67.5637C23.7508 68.1869 23.528 68.9014 23.3465 69.699C23.9406 68.7435 24.3119 67.2646 24.3201 67.2314C24.3696 66.9739 24.6914 66.2759 24.7574 65.9519C25.6237 65.9353 25.9785 66.4837 26.7789 66.6831C27.3152 66.816 27.7937 66.8908 28.6436 66.8741C27.9175 66.4338 26.9356 66.3341 26.5808 65.8522V65.8439Z" fill="#192C7C"/>
<path d="M33.9736 53.4395C33.9241 53.0906 33.7013 52.7915 33.4291 52.5671C33.297 52.4591 33.1155 52.3345 32.9918 52.268C32.8763 52.2099 32.7607 52.1434 32.6452 52.0936C31.7211 51.6948 30.83 51.4954 29.9225 51.3043C29.0231 51.1215 28.1238 50.9719 27.2244 50.839C26.6634 50.7559 26.1023 50.6894 25.5413 50.6147C24.5512 50.4817 23.5528 50.3654 22.5627 50.2491C22.3234 50.2242 22.0842 50.1909 21.8449 50.166C20.0545 49.9583 18.2723 49.7589 16.5066 49.5097C15.6238 49.385 14.7492 49.2438 13.8994 49.061C13.4786 48.9696 13.0578 48.8616 12.6947 48.7287C12.6122 48.6954 12.505 48.6539 12.4472 48.629C12.4142 48.6123 12.3977 48.604 12.3729 48.5874C12.3317 48.5625 12.2904 48.5126 12.3069 48.4628C12.3069 48.4213 12.3069 48.3714 12.3399 48.3548C12.3482 48.2634 12.4472 48.1969 12.4967 48.1055C12.67 47.9394 12.8928 47.7732 13.2063 47.6237C13.4951 47.4741 13.8498 47.3079 14.1964 47.1418L15.1947 46.6848C16.4984 46.07 17.901 45.4967 19.2624 44.9068L22.1254 43.6523L22.0099 41.8826L18.6106 43.4279C17.2492 44.0344 15.8961 44.5994 14.5264 45.2724L13.4951 45.7626C13.1733 45.9204 12.8597 46.07 12.4885 46.2694C11.8119 46.6516 10.797 47.2082 10.764 48.737C10.7805 48.9198 10.8135 49.1108 10.9208 49.277C11.0281 49.4349 11.1518 49.5844 11.3086 49.6924C11.4571 49.8171 11.6469 49.9001 11.8119 49.9915C11.9604 50.058 12.0677 50.0995 12.1914 50.1411C12.67 50.3073 13.132 50.4153 13.5941 50.5067C14.5099 50.6894 15.4093 50.8224 16.3086 50.9387C18.1073 51.1713 19.906 51.3458 21.6881 51.5286C22.0099 51.5618 22.3234 51.5951 22.637 51.6283C23.5693 51.728 24.5099 51.8277 25.434 51.944C25.9621 52.0105 26.4984 52.0686 27.0264 52.1351C27.9093 52.2514 28.7921 52.3843 29.6584 52.5505C30.5165 52.7167 31.3911 52.9161 32.1254 53.2235C32.2162 53.265 32.2987 53.3066 32.3812 53.3481C32.4555 53.3897 32.4637 53.3897 32.505 53.4229C32.571 53.4727 32.637 53.5309 32.6535 53.614C32.67 53.6971 32.637 53.7802 32.5875 53.8466C32.5215 53.9214 32.5132 53.938 32.3234 54.0626C31.6799 54.4697 30.8218 54.7522 29.9885 54.9932C28.4208 55.4418 26.8036 55.7659 25.1782 56.0899L25.104 57.2447C26.8366 56.9207 28.5693 56.5967 30.3102 56.1314C31.2013 55.8739 32.0842 55.6246 32.9835 55.0846C33.1733 54.9683 33.5281 54.7024 33.7178 54.4116C33.9159 54.1208 34.0149 53.7635 33.9736 53.4146V53.4395Z" fill="#B8D436"/>
<path d="M72.2739 42.6802C71.8366 42.1069 71.4076 41.6168 70.9703 41.193C70.533 40.7776 70.071 40.4287 69.5677 40.1462C69.0644 39.872 68.5281 39.6643 67.9422 39.5313C67.3564 39.3984 66.6964 39.3319 65.962 39.3319C65.3597 39.3319 64.7244 39.3984 64.0644 39.523C63.396 39.6477 62.7442 39.8471 62.1007 40.1129C61.4571 40.3788 60.8465 40.7361 60.2772 41.1681C59.6997 41.6084 59.1964 42.1402 58.7508 42.7716C58.3053 43.403 57.9587 44.1259 57.703 44.9484C57.4472 45.7709 57.3152 46.7098 57.3152 47.7733C57.3152 49.1358 57.5462 50.3322 58 51.3791C58.462 52.4176 59.0809 53.2983 59.8647 54.0128C60.6485 54.7274 61.5726 55.2674 62.6452 55.6413C63.7096 56.0068 64.8482 56.1979 66.0446 56.1979C67.0099 56.1979 68 56.0567 69.0231 55.7825C70.038 55.5083 70.9785 55.1012 71.8284 54.5612V49.7756H64.6007V48.4878H73.1815V55.2425C72.5627 55.6496 71.9604 55.9902 71.3828 56.2727C70.797 56.5552 70.2112 56.7878 69.6172 56.9623C69.0231 57.1368 68.4208 57.2614 67.802 57.3445C67.1832 57.4193 66.5396 57.4608 65.8713 57.4608C64.5677 57.4608 63.3218 57.2448 62.1172 56.8211C60.9125 56.3973 59.8647 55.7659 58.9488 54.9351C58.0413 54.1042 57.3152 53.0906 56.7706 51.9025C56.2261 50.7144 55.9538 49.3435 55.9538 47.7982C55.9538 46.6267 56.1023 45.5715 56.3911 44.6327C56.6799 43.7022 57.0759 42.8713 57.5792 42.1485C58.0825 41.4257 58.6601 40.8108 59.3201 40.2957C59.9802 39.7806 60.6733 39.3652 61.4076 39.0328C62.1419 38.7088 62.8927 38.4679 63.6601 38.31C64.4274 38.1522 65.1617 38.0857 65.863 38.0857C66.7789 38.0857 67.5957 38.1688 68.3135 38.3349C69.0314 38.5011 69.6832 38.7504 70.269 39.091C70.8548 39.4233 71.3911 39.8388 71.8944 40.329C72.3977 40.8191 72.8845 41.3675 73.3713 41.9906L72.2739 42.6968V42.6802Z" fill="#192C7C"/>
<path d="M93.5693 53.2651C93.2888 54.2871 92.8432 55.1096 92.2409 55.7327C91.6386 56.3559 90.8795 56.7962 89.9554 57.0538C89.0314 57.3113 87.9257 57.4443 86.6386 57.4443C85.3515 57.4443 84.2789 57.3113 83.363 57.0538C82.4472 56.7962 81.6881 56.3559 81.1023 55.7327C80.5165 55.1096 80.071 54.2871 79.7904 53.2651C79.5099 52.2432 79.3614 50.972 79.3614 49.4599V38.4264H80.7145V49.4101C80.7145 50.6563 80.8053 51.7032 80.9868 52.5755C81.1683 53.4396 81.4901 54.1375 81.9356 54.6776C82.3812 55.2176 82.9918 55.5998 83.7508 55.8324C84.5099 56.0651 85.4753 56.1814 86.6386 56.1814C87.802 56.1814 88.8251 56.0651 89.6007 55.8324C90.3762 55.5998 90.9868 55.2093 91.4406 54.6776C91.8944 54.1375 92.1997 53.4396 92.3812 52.5755C92.5545 51.7115 92.6452 50.6563 92.6452 49.4101V38.4264H93.9984V49.4599C93.9984 50.972 93.8581 52.2432 93.5776 53.2651H93.5693Z" fill="#192C7C"/>
<path d="M115.236 57.0953C112.018 53.099 109.304 49.7341 107.109 46.9923C104.906 44.2589 103.182 42.0987 101.927 40.5201C101.944 42.1153 101.952 44.2755 101.952 46.9923V57.0953H100.599V38.4264H101.878C105.096 42.4393 107.81 45.8125 110.021 48.5543C112.233 51.2961 113.949 53.4396 115.186 55.0016C115.17 53.423 115.162 51.2711 115.162 48.5543V38.4264H116.515V57.0953H115.236Z" fill="#192C7C"/>
<path d="M139.106 51.6118C138.668 52.7583 138.025 53.7387 137.158 54.5446C136.292 55.3505 135.195 55.9737 133.866 56.4223C132.538 56.8627 130.995 57.087 129.229 57.087H123.173V38.4181H129.229C130.995 38.4181 132.546 38.6424 133.866 39.0828C135.195 39.5314 136.292 40.1545 137.158 40.9688C138.025 41.783 138.677 42.7634 139.106 43.9182C139.543 45.0648 139.757 46.3526 139.757 47.7567C139.757 49.1608 139.543 50.4486 139.106 51.5952V51.6118ZM137.876 44.4915C137.53 43.5028 136.985 42.6554 136.251 41.9491C135.517 41.2429 134.568 40.6946 133.413 40.2958C132.257 39.9053 130.871 39.7059 129.271 39.7059H124.518V55.7992H129.271C130.871 55.7992 132.249 55.5998 133.413 55.2093C134.576 54.8188 135.517 54.2622 136.251 53.5559C136.985 52.8497 137.53 52.0106 137.876 51.0219C138.223 50.0415 138.404 48.9531 138.404 47.7567C138.404 46.5603 138.231 45.4719 137.876 44.4832V44.4915Z" fill="#192C7C"/>
<path d="M160.937 57.0953L153.008 49.3353H146.853V57.0953H145.5V38.4264H151.853C155.038 38.4264 157.365 38.8917 158.817 39.8222C160.277 40.7527 161.003 42.0571 161.003 43.7437C161.003 44.4998 160.838 45.1894 160.516 45.8125C160.195 46.4357 159.749 46.984 159.18 47.4659C158.611 47.9478 157.942 48.3383 157.175 48.6374C156.408 48.9365 155.583 49.1442 154.7 49.2439L162.802 57.1036H160.929L160.937 57.0953ZM159.37 42.2981C159.18 41.8162 158.792 41.3842 158.223 41.002C157.645 40.6115 156.837 40.3041 155.797 40.0714C154.757 39.8388 153.371 39.7225 151.655 39.7225H146.853V48.0641H153.33C154.378 48.0641 155.302 47.9395 156.094 47.6902C156.886 47.441 157.546 47.1086 158.066 46.7098C158.594 46.3027 158.99 45.8458 159.254 45.339C159.518 44.8321 159.658 44.3004 159.658 43.7687C159.658 43.2785 159.559 42.7966 159.37 42.323V42.2981Z" fill="#192C7C"/>
<path d="M173.487 49.1359V57.0953H172.134V49.1359L164.13 38.4264H165.756L169.485 43.4363C170.038 44.1924 170.591 44.9319 171.152 45.663C171.713 46.3941 172.266 47.1336 172.818 47.8896C173.388 47.1336 173.949 46.3858 174.493 45.6464C175.038 44.9069 175.591 44.1592 176.144 43.4031L179.873 38.4181H181.498L173.495 49.1276L173.487 49.1359Z" fill="#192C7C"/>
<path d="M215.665 57.1701V48.33C215.665 47.1003 215.665 45.987 215.673 44.99C215.673 43.993 215.681 43.0791 215.681 42.2565C214.601 43.9016 213.248 45.9455 211.63 48.3881C210.013 50.8308 208.074 53.7553 205.83 57.1701H204.18C201.911 53.747 199.98 50.8059 198.38 48.3632C196.779 45.9205 195.434 43.885 194.353 42.2565C194.37 43.9016 194.378 45.9455 194.378 48.3798V57.1701H191.779V37.2383H194.13C196.729 41.2014 198.941 44.5413 200.748 47.2665C202.554 49.9916 203.99 52.1435 205.038 53.7387C206.086 52.1435 207.513 49.9833 209.32 47.2499C211.119 44.5247 213.33 41.1848 215.946 37.2383H218.272V57.1618H215.673L215.665 57.1701Z" fill="#192C7C"/>
<path d="M241.276 51.321C240.805 52.5506 240.112 53.5892 239.172 54.4615C238.231 55.3339 237.076 55.9903 235.682 56.4639C234.287 56.9374 232.67 57.1701 230.814 57.1701H224.13V37.2383H230.814C232.662 37.2383 234.287 37.4709 235.682 37.9445C237.076 38.4181 238.239 39.0827 239.172 39.9468C240.104 40.8109 240.805 41.8577 241.276 43.0957C241.746 44.3336 241.977 45.7045 241.977 47.2166C241.977 48.7288 241.746 50.0996 241.276 51.321ZM238.916 44.1924C238.611 43.2868 238.107 42.5058 237.431 41.8494C236.754 41.1931 235.871 40.6863 234.79 40.329C233.718 39.9717 232.406 39.789 230.88 39.789H226.754V54.6277H230.88C232.414 54.6277 233.718 54.4449 234.79 54.0877C235.863 53.7304 236.746 53.2153 237.431 52.5672C238.116 51.9192 238.611 51.1299 238.916 50.2243C239.221 49.3187 239.378 48.3216 239.378 47.2249C239.378 46.1282 239.221 45.1063 238.916 44.2007V44.1924Z" fill="#192C7C"/>
<path d="M250.756 46.8095C248.14 46.8095 246.012 44.6659 246.012 42.0322C246.012 39.3984 248.14 37.2549 250.756 37.2549C253.371 37.2549 255.5 39.3735 255.5 42.0322C255.5 44.6909 253.396 46.8095 250.756 46.8095ZM250.756 37.9112C248.495 37.9112 246.663 39.7142 246.663 42.0322C246.663 44.3502 248.495 46.1531 250.756 46.1531C253.017 46.1531 254.856 44.2838 254.856 42.0322C254.856 39.7806 253.025 37.9112 250.756 37.9112ZM252.051 44.7823L250.64 42.6221H249.658V44.7823H248.941V39.307H251.16C252.076 39.307 252.885 39.9634 252.885 40.977C252.885 42.1901 251.812 42.5972 251.498 42.5972L252.951 44.7823H252.059H252.051ZM251.16 39.9385H249.658V41.9657H251.16C251.63 41.9657 252.142 41.5337 252.142 40.977C252.142 40.3705 251.622 39.9385 251.16 39.9385Z" fill="#192C7C"/>
</g>
<defs>
<clipPath id="clip0_10987_731">
<rect width="255" height="44.6907" fill="white" transform="translate(0.5 25)"/>
</clipPath>
</defs>
</svg>
